<mxfile host="app.diagrams.net" modified="2023-04-22T20:51:29.993Z" agent="Mozilla/5.0 (Windows NT 10.0; Win64; x64) AppleWebKit/537.36 (KHTML, like Gecko) Chrome/112.0.0.0 Safari/537.36" etag="b_WfgDiPjTNLWESFLlFK" version="21.2.1" type="device">
  <diagram name="Σελίδα-1" id="FGW1QGgAFWrMdD9JjJ1D">
    <mxGraphModel dx="731" dy="2158" grid="1" gridSize="10" guides="1" tooltips="1" connect="1" arrows="1" fold="1" page="1" pageScale="1" pageWidth="1169" pageHeight="1654" math="0" shadow="0">
      <root>
        <mxCell id="0" />
        <mxCell id="1" parent="0" />
        <mxCell id="D7mrrMedz6HR9OCFB-Vp-4" value="" style="rounded=0;orthogonalLoop=1;jettySize=auto;html=1;" parent="1" source="D7mrrMedz6HR9OCFB-Vp-1" target="D7mrrMedz6HR9OCFB-Vp-3" edge="1">
          <mxGeometry relative="1" as="geometry" />
        </mxCell>
        <mxCell id="D7mrrMedz6HR9OCFB-Vp-5" value="Αγορά εξοπλισμού" style="edgeLabel;html=1;align=center;verticalAlign=middle;resizable=0;points=[];" parent="D7mrrMedz6HR9OCFB-Vp-4" vertex="1" connectable="0">
          <mxGeometry x="0.172" y="-4" relative="1" as="geometry">
            <mxPoint x="36" y="9" as="offset" />
          </mxGeometry>
        </mxCell>
        <mxCell id="D7mrrMedz6HR9OCFB-Vp-19" value="" style="edgeStyle=none;rounded=0;orthogonalLoop=1;jettySize=auto;html=1;" parent="1" source="D7mrrMedz6HR9OCFB-Vp-1" target="D7mrrMedz6HR9OCFB-Vp-17" edge="1">
          <mxGeometry relative="1" as="geometry" />
        </mxCell>
        <mxCell id="D7mrrMedz6HR9OCFB-Vp-20" value="Επιλογή καταστήματος" style="edgeLabel;html=1;align=center;verticalAlign=middle;resizable=0;points=[];" parent="D7mrrMedz6HR9OCFB-Vp-19" vertex="1" connectable="0">
          <mxGeometry x="-0.2754" y="-2" relative="1" as="geometry">
            <mxPoint y="10" as="offset" />
          </mxGeometry>
        </mxCell>
        <mxCell id="D7mrrMedz6HR9OCFB-Vp-25" value="" style="edgeStyle=none;rounded=0;orthogonalLoop=1;jettySize=auto;html=1;" parent="1" source="D7mrrMedz6HR9OCFB-Vp-1" target="D7mrrMedz6HR9OCFB-Vp-23" edge="1">
          <mxGeometry relative="1" as="geometry" />
        </mxCell>
        <mxCell id="D7mrrMedz6HR9OCFB-Vp-26" value="Επιλογή προϊόντων και ποσότητας" style="edgeLabel;html=1;align=center;verticalAlign=middle;resizable=0;points=[];" parent="D7mrrMedz6HR9OCFB-Vp-25" vertex="1" connectable="0">
          <mxGeometry x="-0.1014" y="-3" relative="1" as="geometry">
            <mxPoint as="offset" />
          </mxGeometry>
        </mxCell>
        <mxCell id="D7mrrMedz6HR9OCFB-Vp-30" value="" style="edgeStyle=none;rounded=0;orthogonalLoop=1;jettySize=auto;html=1;" parent="1" source="D7mrrMedz6HR9OCFB-Vp-1" target="D7mrrMedz6HR9OCFB-Vp-29" edge="1">
          <mxGeometry relative="1" as="geometry" />
        </mxCell>
        <mxCell id="D7mrrMedz6HR9OCFB-Vp-32" value="Εισαγωγή στοιχείων" style="edgeLabel;html=1;align=center;verticalAlign=middle;resizable=0;points=[];" parent="D7mrrMedz6HR9OCFB-Vp-30" vertex="1" connectable="0">
          <mxGeometry x="-0.1243" y="-2" relative="1" as="geometry">
            <mxPoint x="2" y="37" as="offset" />
          </mxGeometry>
        </mxCell>
        <mxCell id="D7mrrMedz6HR9OCFB-Vp-45" value="" style="edgeStyle=none;rounded=0;orthogonalLoop=1;jettySize=auto;html=1;" parent="1" source="D7mrrMedz6HR9OCFB-Vp-1" target="D7mrrMedz6HR9OCFB-Vp-39" edge="1">
          <mxGeometry relative="1" as="geometry" />
        </mxCell>
        <mxCell id="D7mrrMedz6HR9OCFB-Vp-46" value="Επιβεβαιώνει" style="edgeLabel;html=1;align=center;verticalAlign=middle;resizable=0;points=[];" parent="D7mrrMedz6HR9OCFB-Vp-45" vertex="1" connectable="0">
          <mxGeometry x="0.3966" y="-3" relative="1" as="geometry">
            <mxPoint x="29" y="8" as="offset" />
          </mxGeometry>
        </mxCell>
        <mxCell id="D7mrrMedz6HR9OCFB-Vp-1" value="Χρήστης" style="shape=umlActor;verticalLabelPosition=bottom;verticalAlign=top;html=1;outlineConnect=0;" parent="1" vertex="1">
          <mxGeometry x="395" y="500" width="30" height="60" as="geometry" />
        </mxCell>
        <mxCell id="D7mrrMedz6HR9OCFB-Vp-7" value="" style="rounded=0;orthogonalLoop=1;jettySize=auto;html=1;" parent="1" source="D7mrrMedz6HR9OCFB-Vp-3" target="D7mrrMedz6HR9OCFB-Vp-6" edge="1">
          <mxGeometry relative="1" as="geometry" />
        </mxCell>
        <mxCell id="D7mrrMedz6HR9OCFB-Vp-3" value="Σελίδα αγορά εξοπλισμού" style="shape=umlBoundary;whiteSpace=wrap;html=1;" parent="1" vertex="1">
          <mxGeometry x="425" y="380" width="100" height="80" as="geometry" />
        </mxCell>
        <mxCell id="D7mrrMedz6HR9OCFB-Vp-14" value="" style="edgeStyle=none;rounded=0;orthogonalLoop=1;jettySize=auto;html=1;" parent="1" source="D7mrrMedz6HR9OCFB-Vp-6" target="D7mrrMedz6HR9OCFB-Vp-10" edge="1">
          <mxGeometry relative="1" as="geometry" />
        </mxCell>
        <mxCell id="D7mrrMedz6HR9OCFB-Vp-6" value="Εμφάνισε" style="ellipse;shape=umlControl;whiteSpace=wrap;html=1;" parent="1" vertex="1">
          <mxGeometry x="440" y="250" width="70" height="80" as="geometry" />
        </mxCell>
        <mxCell id="D7mrrMedz6HR9OCFB-Vp-16" value="" style="edgeStyle=none;rounded=0;orthogonalLoop=1;jettySize=auto;html=1;" parent="1" source="D7mrrMedz6HR9OCFB-Vp-10" target="D7mrrMedz6HR9OCFB-Vp-15" edge="1">
          <mxGeometry relative="1" as="geometry" />
        </mxCell>
        <mxCell id="D7mrrMedz6HR9OCFB-Vp-10" value="Σελίδα υπόλοιπο χρήστη" style="shape=umlBoundary;whiteSpace=wrap;html=1;" parent="1" vertex="1">
          <mxGeometry x="570" y="250" width="100" height="80" as="geometry" />
        </mxCell>
        <mxCell id="D7mrrMedz6HR9OCFB-Vp-18" value="" style="edgeStyle=none;rounded=0;orthogonalLoop=1;jettySize=auto;html=1;" parent="1" source="D7mrrMedz6HR9OCFB-Vp-15" target="D7mrrMedz6HR9OCFB-Vp-17" edge="1">
          <mxGeometry relative="1" as="geometry" />
        </mxCell>
        <mxCell id="D7mrrMedz6HR9OCFB-Vp-15" value="Εμφάνισε&amp;nbsp;" style="ellipse;shape=umlControl;whiteSpace=wrap;html=1;" parent="1" vertex="1">
          <mxGeometry x="585" y="360" width="70" height="80" as="geometry" />
        </mxCell>
        <mxCell id="D7mrrMedz6HR9OCFB-Vp-22" value="" style="edgeStyle=none;rounded=0;orthogonalLoop=1;jettySize=auto;html=1;" parent="1" source="D7mrrMedz6HR9OCFB-Vp-17" target="D7mrrMedz6HR9OCFB-Vp-21" edge="1">
          <mxGeometry relative="1" as="geometry" />
        </mxCell>
        <mxCell id="D7mrrMedz6HR9OCFB-Vp-17" value="Σελίδα λίστα καταστημάτων" style="shape=umlBoundary;whiteSpace=wrap;html=1;" parent="1" vertex="1">
          <mxGeometry x="570" y="490" width="100" height="80" as="geometry" />
        </mxCell>
        <mxCell id="D7mrrMedz6HR9OCFB-Vp-24" value="" style="edgeStyle=none;rounded=0;orthogonalLoop=1;jettySize=auto;html=1;" parent="1" source="D7mrrMedz6HR9OCFB-Vp-21" target="D7mrrMedz6HR9OCFB-Vp-23" edge="1">
          <mxGeometry relative="1" as="geometry" />
        </mxCell>
        <mxCell id="D7mrrMedz6HR9OCFB-Vp-21" value="Εμφάνισε" style="ellipse;shape=umlControl;whiteSpace=wrap;html=1;" parent="1" vertex="1">
          <mxGeometry x="585" y="660" width="70" height="80" as="geometry" />
        </mxCell>
        <mxCell id="D7mrrMedz6HR9OCFB-Vp-28" value="" style="edgeStyle=none;rounded=0;orthogonalLoop=1;jettySize=auto;html=1;" parent="1" source="D7mrrMedz6HR9OCFB-Vp-23" target="D7mrrMedz6HR9OCFB-Vp-27" edge="1">
          <mxGeometry relative="1" as="geometry" />
        </mxCell>
        <mxCell id="D7mrrMedz6HR9OCFB-Vp-23" value="Σελίδα λίστα προιόντων" style="shape=umlBoundary;whiteSpace=wrap;html=1;" parent="1" vertex="1">
          <mxGeometry x="570" y="827" width="100" height="80" as="geometry" />
        </mxCell>
        <mxCell id="D7mrrMedz6HR9OCFB-Vp-31" value="" style="edgeStyle=none;rounded=0;orthogonalLoop=1;jettySize=auto;html=1;" parent="1" source="D7mrrMedz6HR9OCFB-Vp-27" target="D7mrrMedz6HR9OCFB-Vp-29" edge="1">
          <mxGeometry relative="1" as="geometry" />
        </mxCell>
        <mxCell id="D7mrrMedz6HR9OCFB-Vp-27" value="Εμφάνισε" style="ellipse;shape=umlControl;whiteSpace=wrap;html=1;" parent="1" vertex="1">
          <mxGeometry x="480" y="820" width="70" height="80" as="geometry" />
        </mxCell>
        <mxCell id="D7mrrMedz6HR9OCFB-Vp-34" value="" style="edgeStyle=none;rounded=0;orthogonalLoop=1;jettySize=auto;html=1;" parent="1" source="D7mrrMedz6HR9OCFB-Vp-29" target="D7mrrMedz6HR9OCFB-Vp-33" edge="1">
          <mxGeometry relative="1" as="geometry" />
        </mxCell>
        <mxCell id="D7mrrMedz6HR9OCFB-Vp-29" value="Σελίδα εισαγωγή στοιχείων" style="shape=umlBoundary;whiteSpace=wrap;html=1;" parent="1" vertex="1">
          <mxGeometry x="360" y="820" width="100" height="80" as="geometry" />
        </mxCell>
        <mxCell id="D7mrrMedz6HR9OCFB-Vp-35" style="edgeStyle=orthogonalEdgeStyle;rounded=0;orthogonalLoop=1;jettySize=auto;html=1;entryX=0.544;entryY=1.025;entryDx=0;entryDy=0;entryPerimeter=0;" parent="1" source="D7mrrMedz6HR9OCFB-Vp-33" target="D7mrrMedz6HR9OCFB-Vp-29" edge="1">
          <mxGeometry relative="1" as="geometry">
            <Array as="points">
              <mxPoint x="260" y="970" />
              <mxPoint x="414" y="970" />
            </Array>
          </mxGeometry>
        </mxCell>
        <mxCell id="D7mrrMedz6HR9OCFB-Vp-36" value="Όχι" style="edgeLabel;html=1;align=center;verticalAlign=middle;resizable=0;points=[];" parent="D7mrrMedz6HR9OCFB-Vp-35" vertex="1" connectable="0">
          <mxGeometry x="0.0823" y="-1" relative="1" as="geometry">
            <mxPoint y="9" as="offset" />
          </mxGeometry>
        </mxCell>
        <mxCell id="D7mrrMedz6HR9OCFB-Vp-38" value="" style="edgeStyle=orthogonalEdgeStyle;rounded=0;orthogonalLoop=1;jettySize=auto;html=1;" parent="1" source="D7mrrMedz6HR9OCFB-Vp-33" target="D7mrrMedz6HR9OCFB-Vp-37" edge="1">
          <mxGeometry relative="1" as="geometry" />
        </mxCell>
        <mxCell id="D7mrrMedz6HR9OCFB-Vp-33" value="Στοιχεία σωστα;" style="ellipse;shape=umlControl;whiteSpace=wrap;html=1;" parent="1" vertex="1">
          <mxGeometry x="230" y="820" width="70" height="80" as="geometry" />
        </mxCell>
        <mxCell id="D7mrrMedz6HR9OCFB-Vp-40" value="" style="edgeStyle=orthogonalEdgeStyle;rounded=0;orthogonalLoop=1;jettySize=auto;html=1;" parent="1" source="D7mrrMedz6HR9OCFB-Vp-37" target="D7mrrMedz6HR9OCFB-Vp-39" edge="1">
          <mxGeometry relative="1" as="geometry" />
        </mxCell>
        <mxCell id="D7mrrMedz6HR9OCFB-Vp-37" value="Εμφάνισε" style="ellipse;shape=umlControl;whiteSpace=wrap;html=1;" parent="1" vertex="1">
          <mxGeometry x="115" y="820" width="70" height="80" as="geometry" />
        </mxCell>
        <mxCell id="D7mrrMedz6HR9OCFB-Vp-42" value="" style="rounded=0;orthogonalLoop=1;jettySize=auto;html=1;" parent="1" source="D7mrrMedz6HR9OCFB-Vp-39" target="D7mrrMedz6HR9OCFB-Vp-41" edge="1">
          <mxGeometry relative="1" as="geometry" />
        </mxCell>
        <mxCell id="D7mrrMedz6HR9OCFB-Vp-39" value="Σελίδα επιβεβαίωσης" style="shape=umlBoundary;whiteSpace=wrap;html=1;" parent="1" vertex="1">
          <mxGeometry x="100" y="490" width="100" height="80" as="geometry" />
        </mxCell>
        <mxCell id="D7mrrMedz6HR9OCFB-Vp-43" value="" style="edgeStyle=none;rounded=0;orthogonalLoop=1;jettySize=auto;html=1;" parent="1" source="D7mrrMedz6HR9OCFB-Vp-41" target="D7mrrMedz6HR9OCFB-Vp-3" edge="1">
          <mxGeometry relative="1" as="geometry" />
        </mxCell>
        <mxCell id="D7mrrMedz6HR9OCFB-Vp-44" value="&#39;Οχι" style="edgeLabel;html=1;align=center;verticalAlign=middle;resizable=0;points=[];" parent="D7mrrMedz6HR9OCFB-Vp-43" vertex="1" connectable="0">
          <mxGeometry x="-0.2083" relative="1" as="geometry">
            <mxPoint x="1" y="17" as="offset" />
          </mxGeometry>
        </mxCell>
        <mxCell id="D7mrrMedz6HR9OCFB-Vp-48" value="" style="edgeStyle=none;rounded=0;orthogonalLoop=1;jettySize=auto;html=1;" parent="1" target="D7mrrMedz6HR9OCFB-Vp-47" edge="1">
          <mxGeometry relative="1" as="geometry">
            <mxPoint x="148.00249532224439" y="310.0499064448886" as="sourcePoint" />
          </mxGeometry>
        </mxCell>
        <mxCell id="D7mrrMedz6HR9OCFB-Vp-55" value="" style="edgeStyle=none;rounded=0;orthogonalLoop=1;jettySize=auto;html=1;" parent="1" source="D7mrrMedz6HR9OCFB-Vp-41" target="D7mrrMedz6HR9OCFB-Vp-47" edge="1">
          <mxGeometry relative="1" as="geometry" />
        </mxCell>
        <mxCell id="D7mrrMedz6HR9OCFB-Vp-59" value="Ναι&amp;nbsp;" style="edgeLabel;html=1;align=center;verticalAlign=middle;resizable=0;points=[];" parent="D7mrrMedz6HR9OCFB-Vp-55" vertex="1" connectable="0">
          <mxGeometry x="-0.6229" y="-1" relative="1" as="geometry">
            <mxPoint x="19" y="-17" as="offset" />
          </mxGeometry>
        </mxCell>
        <mxCell id="D7mrrMedz6HR9OCFB-Vp-41" value="Επιβεβαίωση;" style="ellipse;shape=umlControl;whiteSpace=wrap;html=1;" parent="1" vertex="1">
          <mxGeometry x="110" y="380" width="80" height="80" as="geometry" />
        </mxCell>
        <mxCell id="D7mrrMedz6HR9OCFB-Vp-58" value="" style="edgeStyle=none;rounded=0;orthogonalLoop=1;jettySize=auto;html=1;" parent="1" source="D7mrrMedz6HR9OCFB-Vp-47" target="D7mrrMedz6HR9OCFB-Vp-49" edge="1">
          <mxGeometry relative="1" as="geometry" />
        </mxCell>
        <mxCell id="D7mrrMedz6HR9OCFB-Vp-60" value="Επαρκές" style="edgeLabel;html=1;align=center;verticalAlign=middle;resizable=0;points=[];" parent="D7mrrMedz6HR9OCFB-Vp-58" vertex="1" connectable="0">
          <mxGeometry x="-0.4267" y="1" relative="1" as="geometry">
            <mxPoint x="31" y="-13" as="offset" />
          </mxGeometry>
        </mxCell>
        <mxCell id="D7mrrMedz6HR9OCFB-Vp-66" value="" style="edgeStyle=none;rounded=0;orthogonalLoop=1;jettySize=auto;html=1;" parent="1" source="D7mrrMedz6HR9OCFB-Vp-47" target="D7mrrMedz6HR9OCFB-Vp-65" edge="1">
          <mxGeometry relative="1" as="geometry" />
        </mxCell>
        <mxCell id="D7mrrMedz6HR9OCFB-Vp-67" value="Ανεπαρκές" style="edgeLabel;html=1;align=center;verticalAlign=middle;resizable=0;points=[];" parent="D7mrrMedz6HR9OCFB-Vp-66" vertex="1" connectable="0">
          <mxGeometry x="-0.3882" y="2" relative="1" as="geometry">
            <mxPoint x="4" y="-18" as="offset" />
          </mxGeometry>
        </mxCell>
        <mxCell id="D7mrrMedz6HR9OCFB-Vp-47" value="Έλεγχος υπολοίπου" style="ellipse;shape=umlControl;whiteSpace=wrap;html=1;" parent="1" vertex="1">
          <mxGeometry x="110" y="230" width="80" height="80" as="geometry" />
        </mxCell>
        <mxCell id="D7mrrMedz6HR9OCFB-Vp-52" value="" style="edgeStyle=none;rounded=0;orthogonalLoop=1;jettySize=auto;html=1;entryX=1.01;entryY=0.405;entryDx=0;entryDy=0;entryPerimeter=0;" parent="1" source="D7mrrMedz6HR9OCFB-Vp-49" target="D7mrrMedz6HR9OCFB-Vp-51" edge="1">
          <mxGeometry relative="1" as="geometry">
            <mxPoint x="80" y="160" as="targetPoint" />
          </mxGeometry>
        </mxCell>
        <mxCell id="D7mrrMedz6HR9OCFB-Vp-62" value="" style="edgeStyle=none;rounded=0;orthogonalLoop=1;jettySize=auto;html=1;" parent="1" source="D7mrrMedz6HR9OCFB-Vp-49" target="D7mrrMedz6HR9OCFB-Vp-61" edge="1">
          <mxGeometry relative="1" as="geometry" />
        </mxCell>
        <mxCell id="D7mrrMedz6HR9OCFB-Vp-49" value="Υπολογισμός νέου υπολοίπου" style="ellipse;shape=umlControl;whiteSpace=wrap;html=1;" parent="1" vertex="1">
          <mxGeometry x="110" y="90" width="80" height="80" as="geometry" />
        </mxCell>
        <mxCell id="D7mrrMedz6HR9OCFB-Vp-51" value="Υπόλοιπο χρήστη" style="ellipse;shape=umlEntity;whiteSpace=wrap;html=1;" parent="1" vertex="1">
          <mxGeometry y="100" width="80" height="80" as="geometry" />
        </mxCell>
        <mxCell id="D7mrrMedz6HR9OCFB-Vp-64" value="" style="edgeStyle=none;rounded=0;orthogonalLoop=1;jettySize=auto;html=1;" parent="1" source="D7mrrMedz6HR9OCFB-Vp-61" target="D7mrrMedz6HR9OCFB-Vp-63" edge="1">
          <mxGeometry relative="1" as="geometry" />
        </mxCell>
        <mxCell id="D7mrrMedz6HR9OCFB-Vp-61" value="Εμφάνισε" style="ellipse;shape=umlControl;whiteSpace=wrap;html=1;" parent="1" vertex="1">
          <mxGeometry x="110" y="-40" width="80" height="80" as="geometry" />
        </mxCell>
        <mxCell id="D7mrrMedz6HR9OCFB-Vp-63" value="Σελίδα επιτυχούς αγοράς" style="shape=umlBoundary;whiteSpace=wrap;html=1;" parent="1" vertex="1">
          <mxGeometry x="90" y="-160" width="120" height="80" as="geometry" />
        </mxCell>
        <mxCell id="D7mrrMedz6HR9OCFB-Vp-69" value="" style="edgeStyle=none;rounded=0;orthogonalLoop=1;jettySize=auto;html=1;" parent="1" source="D7mrrMedz6HR9OCFB-Vp-65" target="D7mrrMedz6HR9OCFB-Vp-68" edge="1">
          <mxGeometry relative="1" as="geometry" />
        </mxCell>
        <mxCell id="D7mrrMedz6HR9OCFB-Vp-65" value="Σελίδα ανανέωσης υπολοίπου" style="shape=umlBoundary;whiteSpace=wrap;html=1;" parent="1" vertex="1">
          <mxGeometry x="250" y="230" width="100" height="80" as="geometry" />
        </mxCell>
        <mxCell id="D7mrrMedz6HR9OCFB-Vp-71" value="" style="edgeStyle=none;rounded=0;orthogonalLoop=1;jettySize=auto;html=1;" parent="1" source="D7mrrMedz6HR9OCFB-Vp-68" target="D7mrrMedz6HR9OCFB-Vp-70" edge="1">
          <mxGeometry relative="1" as="geometry" />
        </mxCell>
        <mxCell id="D7mrrMedz6HR9OCFB-Vp-68" value="Ανακατεύθυνε" style="ellipse;shape=umlControl;whiteSpace=wrap;html=1;" parent="1" vertex="1">
          <mxGeometry x="260" y="100" width="80" height="80" as="geometry" />
        </mxCell>
        <mxCell id="D7mrrMedz6HR9OCFB-Vp-70" value="Use case ανανέωση υπολοίπου" style="shape=umlBoundary;whiteSpace=wrap;html=1;" parent="1" vertex="1">
          <mxGeometry x="360" y="100" width="100" height="80" as="geometry" />
        </mxCell>
      </root>
    </mxGraphModel>
  </diagram>
</mxfile>
